<svg xmlns="http://www.w3.org/2000/svg" width="760.076903100551" height="728.1538392129032" style=""><rect id="backgroundrect" width="100" height="100" x="0" y="0" fill="none" stroke="none" class="" style=""/><defs><marker id="Arrow1Lstart" refX="0" refY="0" orient="auto" xmlns:inkscape="http://www.inkscape.org/namespaces/inkscape" inkscape:stockid="Arrow1Lstart" overflow="visible">
            <path transform="scale(.8) translate(12.5)" d="M0 0l5-5-17.5 5 17.5 5-5-5z" fill-rule="evenodd" stroke="#000" stroke-width="1pt" style="fill: rgb(255, 255, 255); stroke: rgb(255, 255, 255); stroke-dasharray: none;"/>
        </marker><radialGradient id="svg_5" spreadMethod="pad"><stop stop-color="#ffffff" stop-opacity="1" offset="0"/><stop stop-color="#000000" stop-opacity="1" offset="1"/></radialGradient></defs><title>Asset 31</title><g class="currentLayer" style=""><title>Layer 1</title><path fill="#ffffff" fill-opacity="1" stroke="#ffffff" stroke-opacity="1" stroke-width="1" stroke-dasharray="none" stroke-linejoin="miter" stroke-linecap="butt" stroke-dashoffset="" fill-rule="nonzero" opacity="1" marker-start="" marker-mid="" marker-end="" d="M100.43702086363585,316.30055746379986 C100.43702086363585,176.06809717234034 221.37411498073604,62.47980433625828 370.6791694462919,62.47980433625828 C519.9842239118478,62.47980433625828 640.9213180289479,176.06809717234034 640.9213180289479,316.30055746379986 C640.9213180289479,456.5330177552594 519.9842239118478,570.1213105913416 370.6791694462919,570.1213105913416 C221.37411498073604,570.1213105913416 100.43702086363585,456.5330177552594 100.43702086363585,316.30055746379986 z" id="svg_2" class="selected" filter=""/><g id="Layer_2" data-name="Layer 2" class="" fill="#1089ff" fill-opacity="1"><g id="Layer_1-2" data-name="Layer 1" fill="#1089ff" fill-opacity="1"><polygon class="cls-1" points="301.309325573713,111.69731140136719 252.09609925535364,160.9105224609375 409.98846375730676,318.81036376953125 251.744384167463,477.05450439453125 300.95757996824426,526.2677001953125 507.98077332761926,319.2444152832031 507.8909906127755,319.15460205078125 508.332518933088,318.7205810546875 301.309325573713,111.69731140136719 " id="svg_1" fill="#1089ff" fill-opacity="1"/></g></g></g></svg>