<svg xmlns="http://www.w3.org/2000/svg" width="342.86" height="553.96" style=""><rect id="backgroundrect" width="100%" height="100%" x="0" y="0" fill="none" stroke="none"/><defs><marker id="Arrow1Lstart" refX="0" refY="0" orient="auto" xmlns:inkscape="http://www.inkscape.org/namespaces/inkscape" inkscape:stockid="Arrow1Lstart" overflow="visible">
            <path transform="scale(.8) translate(12.5)" d="M0 0l5-5-17.5 5 17.5 5-5-5z" fill-rule="evenodd" stroke="#000" stroke-width="1pt" style="fill: rgb(255, 255, 255); stroke: rgb(255, 255, 255); stroke-dasharray: none;"/>
        </marker><radialGradient id="svg_5" spreadMethod="pad"><stop stop-color="#ffffff" stop-opacity="1" offset="0"/><stop stop-color="#000000" stop-opacity="1" offset="1"/></radialGradient></defs><title>Asset 31</title><g class="currentLayer" style=""><title>Layer 1</title><path fill="#ffffff" fill-opacity="1" stroke="#ffffff" stroke-opacity="1" stroke-width="1" stroke-dasharray="none" stroke-linejoin="miter" stroke-linecap="butt" stroke-dashoffset="" fill-rule="nonzero" opacity="1" marker-start="" marker-mid="" marker-end="" d="M-213.4091283923065,287.7230490189866 C-213.4091283923065,89.20297244866566 -42.20453614298274,-71.59828957329404 169.1591579919852,-71.59828957329404 C380.52285212695335,-71.59828957329404 551.727444376277,89.20297244866566 551.727444376277,287.7230490189866 C551.727444376277,486.24312558930757 380.52285212695335,647.0443876112676 169.1591579919852,647.0443876112676 C-42.20453614298274,647.0443876112676 -213.4091283923065,486.24312558930757 -213.4091283923065,287.7230490189866 z" id="svg_2" class="" filter=""/><g id="Layer_2" data-name="Layer 2" class="" fill="#1089ff" fill-opacity="1"><g id="Layer_1-2" data-name="Layer 1" fill="#1089ff" fill-opacity="1"><polygon class="cls-1" points="66.23000752925873,0 0.47000741213560104,65.76000213623047 211.45000874996185,276.75 0.000007331371307373047,488.20001220703125 65.7600063085556,553.9600219726562 342.39002645015717,277.3299865722656 342.27000081539154,277.2099914550781 342.85999715328217,276.6300048828125 66.23000752925873,0 " id="svg_1" fill="#1089ff" fill-opacity="1"/></g></g></g></svg>