<svg xmlns="http://www.w3.org/2000/svg" viewBox="0 0 1534.06 1647.27"><defs/><g id="Layer_2" data-name="Layer 2"><g id="Layer_1-2" data-name="Layer 1"><path transform="rotate(15 718.774 718.797)" fill="#fff" d="M131.9 131.9h1173.77v1173.77H131.9z"/><path class="cls-2" d="M521.71 908.55l12.52-309.25 366.15 93.78c52.83-52.3 89.57-98.24 109.41-136.86 7.94-15.45 20.18-43.86 13-60.56-5.7-13.31-26.42-27.46-56.85-38.82-36.92-13.78-87.21-23.56-149.49-29.09-118.69-10.54-248.24-3.07-325.65 1.39-50.41 2.9-64.18 3.56-78.08 1l26.68-142.78a48.18 48.18 0 00-6.85-.84c6 .18 29.32-1.16 49.89-2.35 76-4.38 217.58-12.53 346.85-1.06 76.32 6.78 137.63 19.1 187.44 37.7 70.44 26.29 117.4 65.91 139.59 117.74 23.27 54.39 17.43 116.32-17.37 184.07-31.33 61-86.25 127.71-167.9 204L942 853.68l-269.91-69.14-5.26 129.89z"/><path class="cls-2" transform="rotate(-86.77 592.049 1075.468)" d="M519.41 1000.56h145.24v149.8H519.41z"/><path fill="#adecff" d="M1437.56 303.79l96.5 197.67-307.02 1145.81-94.47-205.21 304.99-1138.27z"/><path fill="#7ba3ff" d="M0 1133.77l93.81 209.85 1133.23 303.65-93.27-209.72L0 1133.77z"/></g></g></svg>